<svg width="290" height="73" viewBox="0 0 290 73" fill="none" xmlns="http://www.w3.org/2000/svg">
<path d="M3.976 52.536V12.864L0.304 8.832V8.4H21.76V8.832L18.088 12.864V52.536L21.76 56.568V57H0.304V56.568L3.976 52.536ZM63.1819 30.288L63.0379 53.76L66.4219 56.568V57H47.0539V56.568L50.3659 53.76V31.152C50.3659 27.552 48.6379 26.472 46.4779 26.472C44.6059 26.472 43.2379 27.48 42.2299 28.92V53.76L45.5419 56.568V57H26.1739V56.568L29.5579 53.76V26.832L24.1579 29.496L23.8699 29.136C28.2619 23.016 31.3579 17.76 35.7499 17.76C39.2059 17.76 41.8699 19.848 41.2219 28.056H41.2939C46.1179 21.432 49.8619 17.688 52.1659 17.688C60.1579 17.688 63.1819 23.376 63.1819 30.288ZM91.7412 47.712L92.0292 48.072C86.7012 54.984 82.8852 58.08 80.2932 58.08C74.5332 58.08 71.6532 54.624 71.5812 46.704L71.3652 21.576L67.1892 19.128V18.696H72.7332L83.3172 6.528H83.8212V18.696H91.6692V21.792C88.5012 21.792 86.1972 21.576 83.8212 21.144L83.6772 43.608C83.6772 47.352 85.2612 49.224 87.7812 49.224C88.9332 49.224 90.1572 48.792 91.7412 47.712ZM129.892 30.288L129.82 53.76L133.132 56.568V57H113.764V56.568L117.148 53.76V31.152C117.148 27.552 115.348 26.472 113.188 26.472C111.244 26.472 109.876 27.624 108.796 29.136V53.76L112.18 56.568V57H92.8116V56.568L96.1236 53.76V8.256L91.5876 6.672V6.24L108.364 1.128H108.796V26.976C113.26 21.072 116.716 17.688 118.876 17.688C126.94 17.688 129.892 23.376 129.892 30.288ZM168.548 46.416L168.908 46.776C162.788 53.472 157.604 58.08 155.156 58.08C143.636 58.08 134.708 50.592 134.708 38.424C134.708 21.36 150.404 17.616 154.436 17.616C163.508 17.616 167.828 23.304 168.404 30.504C168.404 32.52 158.828 36.912 155.804 36.912H146.588C149.252 42.96 154.364 48.432 161.78 48.432C163.796 48.432 165.668 47.928 168.548 46.416ZM148.316 20.928C146.228 20.928 144.428 23.016 144.428 27.336C144.428 29.856 145.004 32.736 146.084 35.616H155.516C155.372 27.264 152.276 20.928 148.316 20.928ZM184.182 26.976L193.326 33.528C198.438 37.056 202.83 40.008 202.83 45.768C202.83 50.808 199.446 57.936 187.494 57.936C180.798 57.936 177.846 55.704 172.662 56.568L171.15 36.48H171.582C177.486 47.928 188.43 55.488 193.83 55.488C195.054 55.488 196.134 54.84 196.134 53.256C196.134 51.672 194.766 50.088 189.15 46.488L180.726 40.872C175.542 37.488 172.806 34.248 172.806 29.496C172.806 22.296 178.638 17.544 187.062 17.544C190.734 17.544 194.334 18.408 197.142 19.992L200.526 17.184H200.958V35.688H200.454C193.47 24.528 185.622 19.848 181.95 19.848C180.582 19.848 179.574 20.28 179.574 21.792C179.574 23.448 181.158 24.96 184.182 26.976ZM215.383 14.304C211.567 14.304 208.975 11.928 208.975 8.4C208.975 4.944 211.567 2.64 215.383 2.64C219.055 2.64 221.503 4.944 221.503 8.4C221.503 11.928 219.055 14.304 215.383 14.304ZM209.119 53.76L209.191 22.152L205.879 19.128V18.696H221.935V22.152L221.791 53.76L225.103 56.568V57H205.735V56.568L209.119 53.76ZM239.484 3.864C237.252 3.864 236.46 5.376 236.46 7.104C236.46 10.2 240.42 15.168 243.948 18.696H252.372V21.792C248.988 21.792 246.54 21.576 243.948 21.072V53.472L247.332 56.28V56.712H227.964V56.28L231.276 53.472L231.06 21.576L226.74 19.128V18.696H231.06L230.916 16.392C230.124 2.568 243.804 0.119998 245.892 0.119998C251.724 0.119998 255.972 2.568 258.708 5.952L252.444 16.176L252.012 16.104C249.132 9.552 243.156 3.864 239.484 3.864ZM272.609 19.128V18.696H289.097V19.128L264.185 75H251.081V74.568L270.305 57.648L252.521 19.128V18.696H270.593V19.128L266.849 21.792L276.137 43.392H276.641L277.649 40.584C280.169 32.52 277.721 22.944 272.609 19.128Z" fill="#1C1F22"/>
</svg>
